HIERARCHY
ROOT Hips
{
	OFFSET 0.000000 71.427986 0.000000
	CHANNELS 6 Xposition Yposition Zposition Xrotation Yrotation Zrotation
	JOINT Pelvis
	{
		OFFSET 0.000000 0.000000 0.000000
		CHANNELS 3 Xrotation Yrotation Zrotation
		JOINT LeftUpLeg
		{
			OFFSET 6.797100 -2.508499 -1.318700
			CHANNELS 3 Xrotation Yrotation Zrotation
			JOINT LeftLeg
			{
				OFFSET 0.069008 -29.241863 0.690200
				CHANNELS 3 Xrotation Yrotation Zrotation
				JOINT LeftFoot
				{
					OFFSET -0.069008 -29.568123 -0.266800
					CHANNELS 3 Xrotation Yrotation Zrotation
					JOINT LeftToeBase
					{
						OFFSET 3.145500 -8.631000 16.059900
						CHANNELS 3 Xrotation Yrotation Zrotation
						End Site
						{
							OFFSET 0.000000 18.501587 0.000000
						}
					}
				}
			}
			JOINT Left_ShortSleeve
			{
				OFFSET 0.265923 -10.480953 1.153800
				CHANNELS 3 Xrotation Yrotation Zrotation
				End Site
				{
					OFFSET 1.725763 19.823879 0.000000
				}
			}
		}
		JOINT RightUpLeg
		{
			OFFSET -6.797100 -2.508499 -1.318700
			CHANNELS 3 Xrotation Yrotation Zrotation
			JOINT RightLeg
			{
				OFFSET -0.082453 -29.241932 0.688000
				CHANNELS 3 Xrotation Yrotation Zrotation
				JOINT RightFoot
				{
					OFFSET 0.082453 -29.568058 -0.264600
					CHANNELS 3 Xrotation Yrotation Zrotation
					JOINT RightToeBase
					{
						OFFSET -3.115300 -8.682800 16.113400
						CHANNELS 3 Xrotation Yrotation Zrotation
						End Site
						{
							OFFSET 0.000000 18.567114 0.000000
						}
					}
				}
			}
			JOINT Right_ShortSleeve
			{
				OFFSET -0.265923 -10.480953 1.153800
				CHANNELS 3 Xrotation Yrotation Zrotation
				End Site
				{
					OFFSET -1.725766 19.823910 0.000000
				}
			}
		}
	}
	JOINT Spine
	{
		OFFSET 0.000000 13.368103 0.470500
		CHANNELS 3 Xrotation Yrotation Zrotation
		JOINT Spine1
		{
			OFFSET 0.147000 13.837402 0.538800
			CHANNELS 3 Xrotation Yrotation Zrotation
			JOINT Spine2
			{
				OFFSET 0.168000 16.242897 -1.435500
				CHANNELS 3 Xrotation Yrotation Zrotation
				JOINT Neck
				{
					OFFSET 0.217200 18.631500 -1.679100
					CHANNELS 3 Xrotation Yrotation Zrotation
					JOINT Head
					{
						OFFSET 0.000000 6.599396 1.385900
						CHANNELS 3 Xrotation Yrotation Zrotation
						JOINT Hat
						{
							OFFSET -0.532200 27.220596 -10.096100
							CHANNELS 3 Xrotation Yrotation Zrotation
							End Site
							{
								OFFSET 0.000000 22.029861 0.000000
							}
						}
						JOINT HairD
						{
							OFFSET -10.777400 17.437393 -1.325900
							CHANNELS 3 Xrotation Yrotation Zrotation
							JOINT HairD1
							{
								OFFSET -3.290299 -11.051193 1.062200
								CHANNELS 3 Xrotation Yrotation Zrotation
								End Site
								{
									OFFSET 0.000000 11.579437 0.000000
								}
							}
						}
						JOINT HairB
						{
							OFFSET -10.777400 17.437393 1.467900
							CHANNELS 3 Xrotation Yrotation Zrotation
							JOINT HairB1
							{
								OFFSET -1.561200 -12.956299 3.590200
								CHANNELS 3 Xrotation Yrotation Zrotation
								End Site
								{
									OFFSET 0.000000 13.534866 0.000000
								}
							}
						}
						JOINT HairA
						{
							OFFSET 9.713100 17.437393 1.467900
							CHANNELS 3 Xrotation Yrotation Zrotation
							JOINT HairA1
							{
								OFFSET 1.561200 -12.956299 3.590200
								CHANNELS 3 Xrotation Yrotation Zrotation
								End Site
								{
									OFFSET 0.000000 13.534866 0.000000
								}
							}
						}
						JOINT HairC
						{
							OFFSET 9.713100 17.437393 -1.325900
							CHANNELS 3 Xrotation Yrotation Zrotation
							JOINT HairC1
							{
								OFFSET 3.290300 -11.051193 1.062200
								CHANNELS 3 Xrotation Yrotation Zrotation
								End Site
								{
									OFFSET 0.000000 11.579437 0.000000
								}
							}
						}
					}
				}
				JOINT LeftShoulder
				{
					OFFSET 5.101800 15.108002 -2.763700
					CHANNELS 3 Xrotation Yrotation Zrotation
					JOINT LeftArm
					{
						OFFSET 9.825497 2.506317 -1.597400
						CHANNELS 3 Xrotation Yrotation Zrotation
						JOINT LeftForeArm
						{
							OFFSET 21.966244 0.000000 0.000000
							CHANNELS 3 Xrotation Yrotation Zrotation
							JOINT LeftHand
							{
								OFFSET 33.879036 0.000000 0.000000
								CHANNELS 3 Xrotation Yrotation Zrotation
								JOINT LeftHandThumb1
								{
									OFFSET 6.715286 -2.359680 3.363841
									CHANNELS 3 Xrotation Yrotation Zrotation
									JOINT LeftHandThumb2
									{
										OFFSET 2.507072 -1.447464 1.447461
										CHANNELS 3 Xrotation Yrotation Zrotation
										JOINT LeftHandThumb3
										{
											OFFSET 2.898338 -1.673355 1.673357
											CHANNELS 3 Xrotation Yrotation Zrotation
											End Site
											{
												OFFSET -0.295959 3.727692 -0.131651
											}
										}
									}
								}
								JOINT LeftHandIndex1
								{
									OFFSET 14.190811 -0.254547 3.840278
									CHANNELS 3 Xrotation Yrotation Zrotation
									JOINT LeftHandIndex2
									{
										OFFSET 3.551727 0.000000 -0.000000
										CHANNELS 3 Xrotation Yrotation Zrotation
										JOINT LeftHandIndex3
										{
											OFFSET 2.894196 0.000000 0.000000
											CHANNELS 3 Xrotation Yrotation Zrotation
											End Site
											{
												OFFSET -1.000603 2.690872 0.366626
											}
										}
									}
								}
								JOINT LeftHandMiddle1
								{
									OFFSET 13.776489 0.000000 0.000000
									CHANNELS 3 Xrotation Yrotation Zrotation
									JOINT LeftHandMiddle2
									{
										OFFSET 3.438232 0.000000 0.000000
										CHANNELS 3 Xrotation Yrotation Zrotation
										JOINT LeftHandMiddle3
										{
											OFFSET 3.691551 0.000000 0.000000
											CHANNELS 3 Xrotation Yrotation Zrotation
											End Site
											{
												OFFSET -1.082298 3.499527 0.457670
											}
										}
									}
								}
								JOINT LeftHandRing1
								{
									OFFSET 13.966164 -0.268127 -3.067488
									CHANNELS 3 Xrotation Yrotation Zrotation
									JOINT LeftHandRing2
									{
										OFFSET 3.162567 0.000000 0.000000
										CHANNELS 3 Xrotation Yrotation Zrotation
										JOINT LeftHandRing3
										{
											OFFSET 3.324348 0.000000 0.000000
											CHANNELS 3 Xrotation Yrotation Zrotation
											End Site
											{
												OFFSET -0.861900 3.184998 0.405154
											}
										}
									}
								}
								JOINT LeftHandPinky1
								{
									OFFSET 13.131393 -0.168503 -5.746925
									CHANNELS 3 Xrotation Yrotation Zrotation
									JOINT LeftHandPinky2
									{
										OFFSET 2.849182 0.000000 0.000000
										CHANNELS 3 Xrotation Yrotation Zrotation
										JOINT LeftHandPinky3
										{
											OFFSET 2.805038 0.000000 0.000000
											CHANNELS 3 Xrotation Yrotation Zrotation
											End Site
											{
												OFFSET -0.882500 2.642609 0.325652
											}
										}
									}
								}
							}
							JOINT Left_Sleeve
							{
								OFFSET 6.592125 -0.646545 0.805568
								CHANNELS 3 Xrotation Yrotation Zrotation
								End Site
								{
									OFFSET -0.000179 20.275787 -0.000000
								}
							}
						}
					}
				}
				JOINT RightShoulder
				{
					OFFSET -5.731700 15.108002 -2.763700
					CHANNELS 3 Xrotation Yrotation Zrotation
					JOINT RightArm
					{
						OFFSET -9.825497 2.506317 -1.597400
						CHANNELS 3 Xrotation Yrotation Zrotation
						JOINT RightForeArm
						{
							OFFSET -21.966242 0.000000 0.000000
							CHANNELS 3 Xrotation Yrotation Zrotation
							JOINT RightHand
							{
								OFFSET -33.879032 0.000000 0.000000
								CHANNELS 3 Xrotation Yrotation Zrotation
								JOINT RightHandThumb1
								{
									OFFSET -6.715286 -2.359680 3.363841
									CHANNELS 3 Xrotation Yrotation Zrotation
									JOINT RightHandThumb2
									{
										OFFSET -2.507072 -1.447464 1.447461
										CHANNELS 3 Xrotation Yrotation Zrotation
										JOINT RightHandThumb3
										{
											OFFSET -2.898338 -1.673355 1.673357
											CHANNELS 3 Xrotation Yrotation Zrotation
											End Site
											{
												OFFSET 0.295959 3.727692 -0.131651
											}
										}
									}
								}
								JOINT RightHandIndex1
								{
									OFFSET -14.190811 -0.254547 3.840278
									CHANNELS 3 Xrotation Yrotation Zrotation
									JOINT RightHandIndex2
									{
										OFFSET -3.551727 0.000000 -0.000000
										CHANNELS 3 Xrotation Yrotation Zrotation
										JOINT RightHandIndex3
										{
											OFFSET -2.894196 0.000000 0.000000
											CHANNELS 3 Xrotation Yrotation Zrotation
											End Site
											{
												OFFSET 1.000603 2.690872 0.366626
											}
										}
									}
								}
								JOINT RightHandMiddle1
								{
									OFFSET -13.776489 0.000000 0.000000
									CHANNELS 3 Xrotation Yrotation Zrotation
									JOINT RightHandMiddle2
									{
										OFFSET -3.438232 0.000000 0.000000
										CHANNELS 3 Xrotation Yrotation Zrotation
										JOINT RightHandMiddle3
										{
											OFFSET -3.691551 0.000000 0.000000
											CHANNELS 3 Xrotation Yrotation Zrotation
											End Site
											{
												OFFSET 1.082298 3.499527 0.457670
											}
										}
									}
								}
								JOINT RightHandRing1
								{
									OFFSET -13.966164 -0.268127 -3.067488
									CHANNELS 3 Xrotation Yrotation Zrotation
									JOINT RightHandRing2
									{
										OFFSET -3.162567 0.000000 0.000000
										CHANNELS 3 Xrotation Yrotation Zrotation
										JOINT RightHandRing3
										{
											OFFSET -3.324348 0.000000 0.000000
											CHANNELS 3 Xrotation Yrotation Zrotation
											End Site
											{
												OFFSET 0.861900 3.184998 0.405154
											}
										}
									}
								}
								JOINT RightHandPinky1
								{
									OFFSET -13.131393 -0.168503 -5.746925
									CHANNELS 3 Xrotation Yrotation Zrotation
									JOINT RightHandPinky2
									{
										OFFSET -2.849182 0.000000 0.000000
										CHANNELS 3 Xrotation Yrotation Zrotation
										JOINT RightHandPinky3
										{
											OFFSET -2.805038 0.000000 0.000000
											CHANNELS 3 Xrotation Yrotation Zrotation
											End Site
											{
												OFFSET 0.882500 2.642609 0.325652
											}
										}
									}
								}
							}
							JOINT Right_Sleeve
							{
								OFFSET -6.592125 -0.646545 0.805568
								CHANNELS 3 Xrotation Yrotation Zrotation
								End Site
								{
									OFFSET 0.000179 20.275787 -0.000000
								}
							}
						}
					}
				}
				JOINT Bind_Right_JacketString
				{
					OFFSET -3.534800 11.969597 7.200700
					CHANNELS 3 Xrotation Yrotation Zrotation
					JOINT Bind_Right_JacketString1
					{
						OFFSET -0.319900 -6.102600 2.794100
						CHANNELS 3 Xrotation Yrotation Zrotation
						End Site
						{
							OFFSET 0.000000 6.719452 0.000000
						}
					}
				}
				JOINT Bind_Left_JacketString
				{
					OFFSET 2.904800 11.969597 7.200700
					CHANNELS 3 Xrotation Yrotation Zrotation
					JOINT Bind_Left_JacketString1
					{
						OFFSET 0.364800 -5.904503 3.186800
						CHANNELS 3 Xrotation Yrotation Zrotation
						End Site
						{
							OFFSET 0.000000 6.719513 0.000000
						}
					}
				}
				JOINT HairE
				{
					OFFSET 5.915200 17.612701 -11.592200
					CHANNELS 3 Xrotation Yrotation Zrotation
					JOINT HairE1
					{
						OFFSET 0.289200 -7.171898 -1.284500
						CHANNELS 3 Xrotation Yrotation Zrotation
						End Site
						{
							OFFSET 0.000000 7.291756 0.000000
						}
					}
				}
				JOINT HairF
				{
					OFFSET -0.864800 17.612701 -11.592200
					CHANNELS 3 Xrotation Yrotation Zrotation
					JOINT HairF1
					{
						OFFSET 0.000000 -14.087097 -2.127501
						CHANNELS 3 Xrotation Yrotation Zrotation
						End Site
						{
							OFFSET 0.000000 14.246841 0.000000
						}
					}
				}
				JOINT HairG
				{
					OFFSET -8.087700 17.612701 -11.592200
					CHANNELS 3 Xrotation Yrotation Zrotation
					JOINT HairG1
					{
						OFFSET -0.293600 -6.081398 -0.910100
						CHANNELS 3 Xrotation Yrotation Zrotation
						End Site
						{
							OFFSET 0.000000 6.156120 0.000000
						}
					}
				}
			}
		}
	}
	JOINT Pouch
	{
		OFFSET 0.000000 4.394501 10.847300
		CHANNELS 3 Xrotation Yrotation Zrotation
		End Site
		{
			OFFSET 0.000000 21.880577 0.000000
		}
	}
	JOINT Bag
	{
		OFFSET -13.229000 4.813004 -0.593300
		CHANNELS 3 Xrotation Yrotation Zrotation
		End Site
		{
			OFFSET 0.000000 21.880577 0.000000
		}
	}
	JOINT OccupyGuyFacialAnim_Joint
	{
		OFFSET 1.000000 -70.206398 -1.655000
		CHANNELS 3 Xrotation Yrotation Zrotation
		End Site
		{
			OFFSET 0.000000 21.880577 0.000000
		}
	}
}
MOTION
Frames: 4
Frame Time: 0.016667
0.543385 67.181374 -0.798637 1.621709 155.730485 2.105362 -0.000000 -0.000000 -0.000000 -19.985301 -5.862425 9.908129 27.240625 -0.652226 -1.035072 -6.248703 -2.486854 -13.047353 0.000000 -0.000000 -0.000000 -0.000000 0.000000 0.000000 -18.499646 -13.326610 -18.681788 40.409366 0.576806 1.504788 -20.042917 -8.432215 8.948590 -0.000000 -0.000000 -0.000000 -0.000000 0.000000 -0.000001 5.547808 0.002596 -0.433113 11.095621 0.009769 -0.734629 11.095630 0.009767 -0.734626 -10.509364 -1.525001 -3.378807 -17.396263 -3.946710 2.467848 -0.000000 0.000002 0.000000 -0.000000 0.000002 0.000000 -0.000000 0.000002 -0.000000 -0.000000 0.000002 0.000000 -0.000000 -0.000000 -0.000000 -0.000000 0.000002 0.000000 -0.000000 -0.000000 -0.000000 -0.000000 0.000002 0.000000 -0.000000 0.000002 0.000000 9.458508 -6.444351 -14.996471 -9.678084 10.609552 -35.777200 0.014715 -55.260971 0.179020 23.478980 -9.549547 10.015908 7.350862 -14.484217 -10.934829 -1.067060 0.182845 1.946101 0.000001 0.000002 0.000002 5.776131 -9.584547 -10.641317 0.033747 0.666546 -10.636457 0.000001 0.000001 -0.000000 1.641877 7.127200 -4.239643 -0.187957 -0.789336 -15.969044 0.000000 -0.000000 0.000001 1.677301 11.039958 -8.046059 -0.183062 -2.876870 -23.912166 -0.000001 0.000002 -0.000004 0.734576 28.047559 -16.218771 -0.849534 -6.142171 -29.148252 0.000001 -0.000002 0.000003 0.000002 -0.000002 0.000002 -3.413058 0.044914 -0.357075 -8.509100 -11.385594 60.673568 -0.093552 56.136789 -0.118050 33.241352 -12.824982 -17.733579 -4.978368 12.391671 9.407262 -1.210139 -0.220449 -2.121010 0.000001 0.000002 -0.000001 10.258621 13.576550 6.067488 0.012528 -0.647878 4.076581 -0.000002 0.000002 -0.000001 -1.738475 -1.670997 3.393790 -0.252710 0.798108 21.448280 -0.000001 -0.000002 -0.000003 -0.824267 -13.700959 18.348842 -0.242211 2.213608 16.221173 -0.000000 -0.000001 -0.000005 -4.380740 -23.900596 30.060305 -0.233919 5.125291 12.870319 -0.000000 0.000000 0.000001 -0.000001 -0.000001 -0.000004 -0.000003 -0.000001 -0.000000 -0.000002 -0.000001 -0.000001 -0.000003 -0.000001 -0.000001 -0.000003 -0.000001 -0.000001 -0.000003 -0.000001 -0.000000 -0.000002 -0.000001 -0.000001 -0.000003 -0.000001 -0.000001 -0.000003 -0.000001 -0.000001 -0.000003 -0.000001 -0.000000 -0.000002 -0.000001 -0.000001 -0.000000 -0.000000 -0.000000 -0.000000 -0.000000 -0.000000 -0.000000 -0.000000 -0.000000 
0.532159 67.069466 -0.757273 1.094226 154.784299 2.162735 0.000000 -0.000001 -0.000000 -20.921537 -4.670315 10.501396 28.225535 -0.663845 -1.072967 -6.764604 -2.951138 -12.972877 0.000000 -0.000001 0.000000 0.000002 0.000003 -0.000001 -19.303264 -12.441964 -18.312997 40.927655 0.577615 1.522219 -20.130103 -8.315877 8.905930 0.000000 0.000001 0.000000 -0.000001 0.000001 -0.000000 5.540989 -0.037464 -0.482607 11.081761 -0.077130 -0.835931 11.081763 -0.077130 -0.835932 -10.962307 -1.919713 -3.250075 -17.063821 -4.417235 3.165610 -0.000000 -0.000001 -0.000000 -0.000000 -0.000001 -0.000000 -0.000000 -0.000001 0.000000 -0.000000 -0.000001 -0.000000 0.000000 -0.000001 -0.000000 -0.000000 -0.000001 -0.000000 0.000000 -0.000001 -0.000000 -0.000000 -0.000001 -0.000000 -0.000000 -0.000001 -0.000000 9.412427 -6.453413 -14.019423 -8.662124 10.477070 -35.400481 0.010250 -54.481923 0.179179 23.395495 -10.993411 10.180226 7.349539 -14.482205 -10.935201 -1.067021 0.182821 1.946023 0.000001 -0.000001 -0.000002 5.776067 -9.584124 -10.640225 0.033761 0.666536 -10.636314 0.000002 0.000001 -0.000000 1.641811 7.127174 -4.239324 -0.187952 -0.789342 -15.968864 0.000001 0.000000 0.000002 1.677159 11.039861 -8.045520 -0.183068 -2.876805 -23.911710 -0.000001 0.000000 -0.000002 0.734511 28.047043 -16.218544 -0.849495 -6.142069 -29.147737 -0.000001 -0.000001 0.000003 0.000000 -0.000002 -0.000000 -3.299627 0.252107 -0.421617 -8.140540 -9.974486 59.691837 -0.093567 55.025401 -0.121950 32.733060 -11.033748 -18.050319 -4.980109 12.389513 9.406442 -1.210087 -0.220419 -2.120937 -0.000000 0.000002 0.000005 10.258455 13.576039 6.066723 0.012528 -0.647875 4.076560 -0.000004 -0.000001 -0.000002 -1.738411 -1.671047 3.393426 -0.252713 0.798101 21.447900 -0.000001 0.000003 -0.000004 -0.824399 -13.700822 18.347114 -0.242217 2.213570 16.220912 -0.000000 -0.000000 0.000001 -4.381146 -23.900176 30.057477 -0.233940 5.125178 12.870121 -0.000000 0.000001 0.000001 -0.000001 -0.000001 0.000003 0.000002 0.000000 0.000001 -0.000000 0.000002 -0.000000 0.000002 0.000000 0.000001 0.000002 0.000000 0.000001 0.000002 0.000000 0.000001 -0.000000 0.000002 -0.000000 0.000002 0.000000 0.000001 0.000002 0.000000 0.000001 0.000002 0.000000 0.000001 -0.000000 0.000002 -0.000000 0.000000 -0.000001 -0.000000 0.000000 -0.000001 -0.000000 0.000000 -0.000001 -0.000000 
0.518263 66.896332 -0.701198 0.302071 153.395626 2.279559 0.000000 0.000001 -0.000000 -22.185306 -3.346025 11.298286 29.604810 -0.679871 -1.123362 -7.502531 -3.195587 -12.947649 0.000000 -0.000000 -0.000000 -0.000003 0.000000 0.000000 -20.496926 -11.231805 -17.815447 41.668802 0.579796 1.547118 -20.244985 -8.043201 8.851119 0.000000 0.000002 -0.000000 -0.000000 -0.000003 -0.000001 5.532104 -0.077794 -0.537184 11.063666 -0.166389 -0.951347 11.063663 -0.166376 -0.951352 -11.367803 -2.308013 -3.134614 -16.612924 -4.878087 3.873084 -0.000000 -0.000003 -0.000000 -0.000000 -0.000003 -0.000000 -0.000000 -0.000003 -0.000000 -0.000000 -0.000003 0.000000 0.000000 -0.000001 0.000000 -0.000000 -0.000003 0.000000 0.000000 -0.000001 0.000000 -0.000000 -0.000003 -0.000000 -0.000000 -0.000003 -0.000000 9.287386 -6.480150 -13.016975 -7.148099 10.286347 -34.868123 0.002853 -53.374411 0.177118 23.239191 -12.346984 10.353358 7.347663 -14.479373 -10.935731 -1.066966 0.182811 1.945978 0.000002 0.000002 -0.000000 5.775943 -9.583593 -10.639072 0.033763 0.666519 -10.636082 0.000001 0.000001 0.000002 1.641728 7.127104 -4.238970 -0.187942 -0.789334 -15.968598 0.000001 0.000001 -0.000003 1.676999 11.039724 -8.044913 -0.183044 -2.876742 -23.911089 -0.000001 0.000000 0.000002 0.734404 28.046311 -16.218182 -0.849439 -6.141893 -29.146944 -0.000004 -0.000001 0.000005 0.000003 -0.000001 -0.000000 -3.131413 0.557779 -0.519414 -7.620061 -7.972461 58.297297 -0.094649 53.382839 -0.125896 32.021464 -8.492659 -18.497061 -4.982253 12.386639 9.405929 -1.210029 -0.220410 -2.120880 0.000000 0.000002 0.000002 10.258142 13.575358 6.065986 0.012521 -0.647867 4.076555 -0.000001 -0.000004 -0.000002 -1.738354 -1.671128 3.393033 -0.252694 0.798083 21.447383 0.000002 0.000001 -0.000002 -0.824527 -13.700607 18.345301 -0.242212 2.213515 16.220545 -0.000001 -0.000001 -0.000003 -4.381537 -23.899573 30.054540 -0.233945 5.125052 12.869837 0.000000 0.000000 0.000002 0.000002 -0.000001 0.000002 -0.000000 0.000003 -0.000002 0.000000 0.000001 -0.000000 -0.000000 0.000003 -0.000002 -0.000000 0.000003 -0.000002 -0.000000 0.000003 -0.000002 0.000000 0.000001 -0.000000 -0.000000 0.000003 -0.000002 -0.000000 0.000003 -0.000002 -0.000000 0.000003 -0.000002 0.000000 0.000001 -0.000000 0.000000 0.000001 -0.000000 0.000000 0.000001 -0.000000 0.000000 0.000001 -0.000000 
0.487610 66.565979 -0.600084 -1.209681 150.800291 2.596193 -0.000000 -0.000001 -0.000000 -24.411089 -1.614679 12.688341 32.103904 -0.707541 -1.213385 -8.854475 -2.926339 -12.986015 -0.000000 0.000001 0.000000 -0.000000 0.000002 -0.000000 -22.768238 -9.078496 -16.869246 43.036359 0.583784 1.592745 -20.439997 -7.453681 8.761450 -0.000000 0.000001 -0.000000 -0.000001 0.000001 -0.000000 5.516748 -0.119022 -0.606705 11.032435 -0.262063 -1.106973 11.032436 -0.262068 -1.106974 -11.644140 -2.672790 -3.043681 -15.844133 -5.313085 4.602628 -0.000000 0.000002 -0.000000 -0.000000 0.000002 -0.000000 -0.000000 0.000002 -0.000000 -0.000000 0.000002 -0.000000 -0.000000 -0.000000 -0.000000 -0.000000 0.000002 -0.000000 -0.000000 -0.000000 -0.000000 -0.000000 0.000002 -0.000000 -0.000000 0.000002 -0.000000 8.947999 -6.559108 -11.945466 -4.288844 9.928076 -33.890893 -0.012117 -51.337041 0.169273 22.892540 -13.455967 10.544934 7.344203 -14.474171 -10.936688 -1.066927 0.182802 1.945928 0.000001 0.000003 -0.000001 5.775588 -9.582684 -10.637831 0.033753 0.666479 -10.635714 0.000000 -0.000001 -0.000004 1.641615 7.126951 -4.238592 -0.187946 -0.789327 -15.968118 0.000002 0.000001 -0.000006 1.676805 11.039365 -8.044203 -0.183009 -2.876583 -23.909979 -0.000002 0.000001 -0.000004 0.734200 28.044950 -16.217547 -0.849289 -6.141629 -29.145544 -0.000001 0.000001 -0.000000 0.000002 -0.000001 0.000002 -2.814930 1.132009 -0.706650 -6.670055 -4.296612 55.732663 -0.098518 50.295935 -0.129488 30.742931 -3.827469 -19.312420 -4.985584 12.381784 9.406300 -1.209970 -0.220403 -2.120813 -0.000001 0.000000 0.000001 10.257426 13.574221 6.065339 0.012517 -0.647846 4.076514 0.000002 0.000001 0.000002 -1.738274 -1.671267 3.392612 -0.252683 0.798069 21.446452 0.000001 -0.000001 0.000001 -0.824667 -13.700127 18.343214 -0.242196 2.213414 16.219831 -0.000001 -0.000001 -0.000002 -4.381904 -23.898373 30.051220 -0.233921 5.124802 12.869279 -0.000000 0.000001 -0.000003 0.000001 0.000001 0.000003 0.000000 0.000003 -0.000002 0.000001 -0.000000 -0.000000 0.000000 0.000003 -0.000002 0.000000 0.000003 -0.000002 0.000000 0.000003 -0.000002 0.000001 -0.000000 0.000000 0.000000 0.000003 -0.000002 0.000000 0.000003 -0.000002 0.000000 0.000003 -0.000002 0.000001 -0.000000 0.000000 -0.000000 -0.000001 -0.000000 -0.000000 -0.000001 -0.000000 -0.000000 -0.000001 -0.000000 
